<svg xmlns="http://www.w3.org/2000/svg" width="512" height="512" viewBox="0 0 512 512">
  <rect width="512" height="512" rx="112" fill="#1F2937"/>
  <circle cx="256" cy="256" r="200" fill="none" stroke="#FFFFFF" stroke-width="14"/>
  <path d="M154.24 204.11Q170.71 204.11 183.03 210.66Q195.37 217.17 202.12 228.98Q208.87 240.78 208.87 256.23Q208.87 271.52 202.12 283.39Q195.37 295.27 182.96 301.81Q170.57 308.33 154.24 308.33L115.21 308.33L115.21 204.11L154.24 204.11ZM152.62 286.36Q167.00 286.36 175.03 278.50Q183.05 270.61 183.05 256.23Q183.05 241.83 175.03 233.83Q167.00 225.80 152.62 225.80L140.58 225.80L140.58 286.36L152.62 286.36ZM248.50 224.46L248.50 245.54L282.50 245.54L282.50 265.14L248.50 265.14L248.50 287.98L286.96 287.98L286.96 308.33L223.13 308.33L223.13 204.11L286.96 204.11L286.96 224.46L248.50 224.46ZM352.72 309.37Q338.02 309.37 325.77 302.55Q313.52 295.71 306.31 283.46Q299.12 271.22 299.12 255.93Q299.12 240.65 306.31 228.47Q313.52 216.29 325.77 209.47Q338.02 202.63 352.72 202.63Q367.40 202.63 379.65 209.47Q391.90 216.29 398.95 228.47Q406.00 240.65 406.00 255.93Q406.00 271.22 398.88 283.46Q391.76 295.71 379.58 302.55Q367.40 309.37 352.72 309.37ZM352.72 286.20Q365.18 286.20 372.67 277.90Q380.18 269.59 380.18 255.93Q380.18 242.13 372.67 233.90Q365.18 225.64 352.72 225.64Q340.10 225.64 332.59 233.80Q325.10 241.97 325.10 255.93Q325.10 269.73 332.59 277.97Q340.10 286.20 352.72 286.20Z" fill="#FFFFFF" fill-rule="evenodd"/>
</svg>
